<?xml version="1.0" encoding="utf-8"?>
<!-- Generator: Adobe Illustrator 27.6.1, SVG Export Plug-In . SVG Version: 6.00 Build 0)  -->
<svg version="1.1" id="Layer_1" xmlns="http://www.w3.org/2000/svg" xmlns:xlink="http://www.w3.org/1999/xlink" x="0px" y="0px"
	 viewBox="0 0 521 538.5" style="enable-background:new 0 0 521 538.5;" xml:space="preserve">
<style type="text/css">
	.st0{fill:#004B97;}
	.st1{fill:#F6921E;}
</style>
<g>
	<path class="st0" d="M7.4,365.9c2.1,0,3.8,0.7,5.3,2.2c1.5,1.5,2.2,3.2,2.2,5.3c0,2-0.7,3.8-2.2,5.3s-3.2,2.2-5.3,2.2
		c-2,0-3.8-0.7-5.2-2.2S0,375.5,0,373.4c0-2.1,0.7-3.9,2.2-5.3C3.7,366.6,5.4,365.9,7.4,365.9z M2.9,395H12v70.7H2.9V395z"/>
	<path class="st0" d="M30.9,395H40v12.7c3.6-4.9,7.7-8.5,12.1-10.9c4.4-2.4,9.2-3.6,14.4-3.6c5.3,0,10,1.3,14.1,4
		c4.1,2.7,7.1,6.3,9.1,10.9c1.9,4.5,2.9,11.6,2.9,21.2v36.4h-9.1V432c0-8.1-0.3-13.6-1-16.3c-1.1-4.7-3.1-8.2-6.1-10.6
		c-3-2.4-6.9-3.5-11.7-3.5c-5.5,0-10.4,1.8-14.8,5.5c-4.3,3.6-7.2,8.1-8.6,13.5c-0.9,3.5-1.3,9.9-1.3,19.2v25.9h-9.1
		C30.9,465.7,30.9,395,30.9,395z"/>
	<path class="st0" d="M112.1,395h9.1v12.7c3.6-4.9,7.7-8.5,12.1-10.9c4.4-2.4,9.2-3.6,14.4-3.6c5.3,0,10,1.3,14.1,4
		s7.1,6.3,9.1,10.9c1.9,4.5,2.9,11.6,2.9,21.2v36.4h-9.1V432c0-8.1-0.3-13.6-1-16.3c-1.1-4.7-3.1-8.2-6.1-10.6
		c-3-2.4-6.9-3.5-11.7-3.5c-5.5,0-10.4,1.8-14.8,5.5c-4.3,3.6-7.2,8.1-8.6,13.5c-0.9,3.5-1.3,9.9-1.3,19.2v25.9h-9.1V395z"/>
	<path class="st0" d="M226.6,393.2c10.9,0,19.9,3.9,27.1,11.8c6.5,7.2,9.8,15.7,9.8,25.5c0,9.9-3.4,18.5-10.3,25.9
		c-6.9,7.4-15.7,11.1-26.5,11.1c-10.9,0-19.7-3.7-26.6-11.1c-6.9-7.4-10.3-16-10.3-25.9c0-9.8,3.2-18.3,9.8-25.5
		C206.7,397.1,215.7,393.2,226.6,393.2z M226.6,402.1c-7.6,0-14.1,2.8-19.5,8.4c-5.4,5.6-8.1,12.3-8.1,20.3c0,5.1,1.2,9.9,3.7,14.3
		s5.8,7.8,10,10.2c4.2,2.4,8.8,3.6,13.9,3.6c5,0,9.7-1.2,13.9-3.6c4.2-2.4,7.6-5.8,10-10.2s3.7-9.2,3.7-14.3
		c0-7.9-2.7-14.7-8.2-20.3C240.6,404.9,234.1,402.1,226.6,402.1z"/>
	<path class="st1" d="M370.3,388l-14.9,9.7c-4.3-4.9-8.5-8.4-12.5-10.3s-8.6-2.9-13.7-2.9c-11,0-20,4.4-27,13.3
		c-5.5,7.1-8.2,14.9-8.2,23.5c0,8.5,2.8,15.6,8.5,21.4c5.6,5.8,12.6,8.6,20.9,8.6c6.1,0,11.8-1.5,16.8-4.5c5-3,9.2-7.4,12.4-13.4
		h-29.8l2.2-17h48.3c-0.7,15.8-5.6,28.4-14.8,37.6c-9.2,9.3-20.9,13.9-35.2,13.9c-15.5,0-27.7-5.4-36.6-16.1
		c-7.1-8.6-10.7-18.9-10.7-30.8c0-14.5,5.2-27,15.7-37.6c10.5-10.6,22.9-15.9,37.4-15.9c5.4,0,10.6,0.8,15.7,2.3
		c5.1,1.6,9.7,3.8,13.8,6.6C362.6,379.4,366.5,383.2,370.3,388z"/>
	<path class="st1" d="M446.5,395h17.4l-9.9,70.7h-17.2l1-7.6c-3.8,3.5-7.3,6-10.6,7.3c-3.3,1.4-7,2.1-11,2.1
		c-9.4,0-16.8-3.4-22.3-10.3c-5.5-6.9-8.3-14.9-8.3-24c0-7,1.8-13.6,5.3-19.9c3.5-6.3,8.3-11.2,14.2-14.8s12.2-5.3,18.7-5.3
		c4.4,0,8.4,1,12.1,3s6.7,4.9,9.1,8.8L446.5,395z M420.4,452c4.3,0,8-1,11.2-2.9s5.9-4.9,8-9c2.2-4.1,3.2-8.2,3.2-12.5
		c0-5.6-1.6-10.1-4.9-13.5s-7.5-5.1-12.9-5.1c-6.2,0-11.4,2.3-15.8,6.8c-4.3,4.5-6.5,10.4-6.5,17.6c0,5.5,1.6,10,4.9,13.4
		C411.1,450.3,415.3,452,420.4,452z"/>
	<path class="st1" d="M521,404.9l-8.3,13.2c-2.1-3.2-4.4-5.5-6.7-7c-2.4-1.5-4.5-2.2-6.6-2.2c-1.6,0-2.9,0.4-4,1.3
		c-1.1,0.9-1.6,1.8-1.6,2.9c0,1,0.4,2.1,1.3,3.1c0.8,1,3.3,3,7.5,6c6.6,4.8,11,8.9,13.1,12.2c2.1,3.4,3.2,7.1,3.2,11.1
		c0,5.2-2.2,10.2-6.5,14.9s-10.6,7-18.7,7c-4.7,0-9-1-12.9-2.9c-3.9-1.9-8.2-5.4-13-10.5l10.7-12.5c4.9,6.4,10.2,9.6,15.9,9.6
		c2.3,0,4.1-0.5,5.5-1.7c1.4-1.1,2-2.4,2-3.9c0-1.2-0.5-2.5-1.6-3.7s-3.9-3.6-8.5-6.9c-5.4-3.8-9.1-7.1-11.1-9.8
		c-2.9-3.8-4.3-7.8-4.3-12.1c0-5.9,2.2-10.8,6.7-14.5c4.5-3.7,9.8-5.6,15.9-5.6c4.3,0,8.4,1,12.2,3
		C515.3,398.2,518.5,401.1,521,404.9z"/>
</g>
<g>
	<g>
		<path d="M55.8,501.6h14.4v2.8H58.7v9h11.5v2.8H58.7v14.1h-2.9V501.6z"/>
		<path d="M84.8,508.5c3.3,0,6,1.2,8.1,3.5c1.9,2.2,2.9,4.7,2.9,7.7c0,3-1,5.5-3.1,7.8s-4.7,3.3-7.9,3.3c-3.2,0-5.9-1.1-8-3.3
			c-2.1-2.2-3.1-4.8-3.1-7.8c0-2.9,1-5.5,2.9-7.6C78.8,509.7,81.5,508.5,84.8,508.5z M84.8,511.1c-2.3,0-4.2,0.8-5.8,2.5
			s-2.4,3.7-2.4,6.1c0,1.5,0.4,3,1.1,4.3s1.8,2.3,3,3.1c1.3,0.7,2.7,1.1,4.2,1.1s2.9-0.4,4.2-1.1c1.3-0.7,2.3-1.7,3-3.1
			c0.7-1.3,1.1-2.8,1.1-4.3c0-2.4-0.8-4.4-2.4-6.1C88.9,512,87,511.1,84.8,511.1z"/>
		<path d="M99.8,509h2.8v3.1c0.8-1.2,1.7-2.1,2.6-2.7c0.9-0.6,1.9-0.9,2.9-0.9c0.8,0,1.6,0.2,2.4,0.7l-1.4,2.3
			c-0.6-0.2-1.1-0.4-1.4-0.4c-0.9,0-1.8,0.4-2.6,1.1s-1.5,1.9-1.9,3.5c-0.3,1.2-0.5,3.7-0.5,7.3v7.2h-2.8L99.8,509L99.8,509z"/>
		<path d="M121.4,524.9l2.4-1.5c1.7,3.2,3.7,4.7,5.9,4.7c1,0,1.9-0.2,2.7-0.7c0.8-0.5,1.5-1,1.9-1.8c0.4-0.8,0.7-1.5,0.7-2.4
			c0-1-0.3-1.9-1-2.8c-0.9-1.3-2.5-2.8-4.9-4.6c-2.4-1.8-3.9-3.1-4.5-3.9c-1-1.4-1.5-2.8-1.5-4.4c0-1.2,0.3-2.4,0.9-3.4
			s1.4-1.8,2.5-2.4c1.1-0.6,2.3-0.9,3.5-0.9c1.4,0,2.6,0.3,3.8,1c1.2,0.7,2.4,1.9,3.7,3.7l-2.3,1.8c-1.1-1.4-2-2.4-2.8-2.8
			s-1.6-0.7-2.5-0.7c-1.2,0-2.1,0.4-2.8,1c-0.7,0.7-1.1,1.6-1.1,2.6c0,0.6,0.1,1.2,0.4,1.8s0.7,1.2,1.4,1.9c0.4,0.4,1.6,1.3,3.7,2.9
			c2.5,1.8,4.2,3.5,5.1,4.9c0.9,1.4,1.4,2.9,1.4,4.3c0,2.1-0.8,3.9-2.4,5.4c-1.6,1.5-3.5,2.3-5.8,2.3c-1.7,0-3.3-0.5-4.7-1.4
			C123.9,528.6,122.6,527.1,121.4,524.9z"/>
		<path d="M143.7,509h2.7v3.7c0.9-1.4,1.9-2.3,2.9-3c1.4-0.8,2.8-1.2,4.4-1.2c1,0,2,0.2,2.9,0.6s1.7,0.9,2.3,1.6
			c0.6,0.7,1.1,1.6,1.5,2.9c0.9-1.7,2-2.9,3.4-3.8c1.4-0.9,2.8-1.3,4.4-1.3c1.5,0,2.8,0.4,3.9,1.1c1.1,0.7,1.9,1.8,2.5,3.1
			c0.5,1.3,0.8,3.3,0.8,6v11.6h-2.8v-11.6c0-2.3-0.2-3.8-0.5-4.7c-0.3-0.8-0.9-1.5-1.7-2c-0.8-0.5-1.7-0.8-2.8-0.8
			c-1.3,0-2.5,0.4-3.6,1.2c-1.1,0.8-1.9,1.8-2.4,3.1c-0.5,1.3-0.8,3.5-0.8,6.5v8.3h-2.7v-10.8c0-2.6-0.2-4.3-0.5-5.2
			c-0.3-0.9-0.9-1.7-1.7-2.2c-0.8-0.5-1.7-0.8-2.8-0.8c-1.3,0-2.4,0.4-3.5,1.1c-1.1,0.8-1.9,1.8-2.4,3.1c-0.5,1.3-0.8,3.2-0.8,5.9v9
			h-2.7L143.7,509L143.7,509z"/>
		<path d="M202.3,509v21.2h-2.7v-3.6c-1.1,1.4-2.4,2.4-3.9,3.1c-1.4,0.7-3,1-4.7,1c-3,0-5.6-1.1-7.7-3.3s-3.2-4.8-3.2-7.9
			c0-3,1.1-5.7,3.2-7.8s4.7-3.2,7.7-3.2c1.7,0,3.3,0.4,4.7,1.1s2.6,1.9,3.7,3.3V509L202.3,509L202.3,509z M191.4,511.1
			c-1.5,0-2.9,0.4-4.2,1.1s-2.3,1.8-3.1,3.1c-0.8,1.3-1.1,2.8-1.1,4.3c0,1.5,0.4,2.9,1.1,4.3c0.8,1.4,1.8,2.4,3.1,3.2
			c1.3,0.8,2.7,1.1,4.1,1.1c1.5,0,2.9-0.4,4.2-1.1c1.3-0.8,2.4-1.8,3.1-3c0.7-1.3,1.1-2.7,1.1-4.3c0-2.5-0.8-4.5-2.4-6.2
			C195.7,511.9,193.7,511.1,191.4,511.1z"/>
		<path d="M207.4,509h2.8v3.1c0.8-1.2,1.7-2.1,2.6-2.7c0.9-0.6,1.9-0.9,2.9-0.9c0.8,0,1.6,0.2,2.4,0.7l-1.4,2.3
			c-0.6-0.2-1.1-0.4-1.4-0.4c-0.9,0-1.8,0.4-2.6,1.1c-0.8,0.8-1.5,1.9-1.9,3.5c-0.3,1.2-0.5,3.7-0.5,7.3v7.2h-2.8L207.4,509
			L207.4,509z"/>
		<path d="M222.8,501.2h2.7v7.9h4.3v2.4h-4.3v18.8h-2.7v-18.8h-3.7V509h3.7V501.2z"/>
		<path d="M273,506.4l-2.2,2.1c-1.6-1.6-3.4-2.8-5.2-3.6s-3.8-1.2-5.6-1.2c-2.2,0-4.4,0.5-6.4,1.7c-2,1.1-3.6,2.6-4.7,4.5
			c-1.1,1.9-1.7,3.9-1.7,6c0,2.2,0.6,4.2,1.7,6.1c1.2,1.9,2.8,3.5,4.8,4.6c2,1.1,4.3,1.7,6.7,1.7c3,0,5.4-0.8,7.5-2.5
			s3.2-3.8,3.6-6.5h-9.1v-2.8h12.4c0,4.4-1.3,7.9-3.9,10.5c-2.6,2.6-6.1,3.9-10.5,3.9c-5.3,0-9.5-1.8-12.6-5.4
			c-2.4-2.8-3.6-6-3.6-9.6c0-2.7,0.7-5.2,2-7.6s3.2-4.2,5.6-5.5s5.1-2,8.1-2c2.4,0,4.7,0.4,6.9,1.3C268.9,503,271,504.4,273,506.4z"
			/>
		<path d="M300.8,509v21.2h-2.7v-3.6c-1.1,1.4-2.4,2.4-3.9,3.1c-1.4,0.7-3,1-4.7,1c-3,0-5.6-1.1-7.7-3.3s-3.2-4.8-3.2-7.9
			c0-3,1.1-5.7,3.2-7.8c2.1-2.2,4.7-3.2,7.7-3.2c1.7,0,3.3,0.4,4.7,1.1s2.6,1.9,3.7,3.3V509L300.8,509L300.8,509z M289.9,511.1
			c-1.5,0-2.9,0.4-4.2,1.1s-2.3,1.8-3.1,3.1c-0.8,1.3-1.1,2.8-1.1,4.3c0,1.5,0.4,2.9,1.1,4.3c0.8,1.4,1.8,2.4,3.1,3.2
			c1.3,0.8,2.7,1.1,4.1,1.1c1.5,0,2.9-0.4,4.2-1.1s2.4-1.8,3.1-3c0.7-1.3,1.1-2.7,1.1-4.3c0-2.5-0.8-4.5-2.4-6.2
			C294.3,511.9,292.3,511.1,289.9,511.1z"/>
		<path d="M317.6,511.3l-1.8,1.8c-1.5-1.4-2.9-2.1-4.3-2.1c-0.9,0-1.6,0.3-2.3,0.9c-0.6,0.6-1,1.3-1,2c0,0.7,0.3,1.3,0.8,2
			c0.5,0.6,1.6,1.4,3.3,2.2c2,1,3.4,2.1,4.1,3c0.7,1,1.1,2.1,1.1,3.3c0,1.7-0.6,3.2-1.8,4.4c-1.2,1.2-2.8,1.8-4.6,1.8
			c-1.2,0-2.4-0.3-3.5-0.8c-1.1-0.5-2-1.3-2.8-2.2l1.7-2c1.4,1.6,2.9,2.4,4.4,2.4c1.1,0,2-0.3,2.8-1c0.8-0.7,1.1-1.5,1.1-2.5
			c0-0.8-0.2-1.5-0.8-2.1c-0.5-0.6-1.6-1.3-3.4-2.3c-1.9-1-3.2-2-3.9-2.9c-0.7-1-1-2.1-1-3.3c0-1.6,0.5-3,1.6-4s2.5-1.6,4.2-1.6
			C313.7,508.5,315.6,509.4,317.6,511.3z"/>
		<path d="M334,501.6h2.9v17.3c0,2,0,3.3,0.1,3.8c0.1,1.1,0.5,2.1,1,2.8s1.3,1.4,2.4,1.9c1.1,0.5,2.2,0.8,3.2,0.8
			c1,0,1.9-0.2,2.7-0.6c0.9-0.4,1.6-1,2.2-1.7c0.6-0.7,1-1.6,1.3-2.6c0.2-0.7,0.3-2.2,0.3-4.5v-17.3h2.9v17.3c0,2.6-0.2,4.6-0.8,6.2
			c-0.5,1.6-1.5,3-3,4.1s-3.3,1.8-5.4,1.8c-2.3,0-4.3-0.5-5.9-1.7c-1.6-1.1-2.8-2.6-3.3-4.4c-0.4-1.1-0.5-3.1-0.5-6L334,501.6
			L334,501.6z"/>
		<path d="M370.3,511.3l-1.8,1.8c-1.5-1.4-2.9-2.1-4.3-2.1c-0.9,0-1.6,0.3-2.3,0.9c-0.6,0.6-1,1.3-1,2c0,0.7,0.3,1.3,0.8,2
			c0.5,0.6,1.6,1.4,3.3,2.2c2,1,3.4,2.1,4.1,3c0.7,1,1.1,2.1,1.1,3.3c0,1.7-0.6,3.2-1.8,4.4c-1.2,1.2-2.8,1.8-4.6,1.8
			c-1.2,0-2.4-0.3-3.5-0.8c-1.1-0.5-2-1.3-2.8-2.2l1.7-2c1.4,1.6,2.9,2.4,4.4,2.4c1.1,0,2-0.3,2.8-1c0.8-0.7,1.1-1.5,1.1-2.5
			c0-0.8-0.2-1.5-0.8-2.1c-0.5-0.6-1.6-1.3-3.4-2.3c-1.9-1-3.2-2-3.9-2.9c-0.7-1-1-2.1-1-3.3c0-1.6,0.5-3,1.6-4s2.5-1.6,4.2-1.6
			C366.3,508.5,368.3,509.4,370.3,511.3z"/>
		<path d="M396.2,509v21.2h-2.7v-3.6c-1.1,1.4-2.4,2.4-3.9,3.1c-1.4,0.7-3,1-4.7,1c-3,0-5.6-1.1-7.7-3.3s-3.2-4.8-3.2-7.9
			c0-3,1.1-5.7,3.2-7.8c2.1-2.2,4.7-3.2,7.7-3.2c1.7,0,3.3,0.4,4.7,1.1s2.6,1.9,3.7,3.3V509L396.2,509L396.2,509z M385.3,511.1
			c-1.5,0-2.9,0.4-4.2,1.1s-2.3,1.8-3.1,3.1c-0.8,1.3-1.1,2.8-1.1,4.3c0,1.5,0.4,2.9,1.1,4.3c0.8,1.4,1.8,2.4,3.1,3.2
			c1.3,0.8,2.7,1.1,4.1,1.1c1.5,0,2.9-0.4,4.2-1.1s2.4-1.8,3.1-3c0.7-1.3,1.1-2.7,1.1-4.3c0-2.5-0.8-4.5-2.4-6.2
			C389.6,511.9,387.7,511.1,385.3,511.1z"/>
		<path d="M420.6,509h2.7v16.9c0,3-0.3,5.2-0.8,6.5c-0.7,2-2,3.5-3.7,4.5s-3.9,1.6-6.4,1.6c-1.8,0-3.5-0.3-4.9-0.8
			c-1.5-0.5-2.6-1.2-3.5-2.1c-0.9-0.9-1.8-2.1-2.5-3.8h3c0.8,1.4,1.9,2.4,3.1,3.1c1.3,0.7,2.9,1,4.7,1c1.9,0,3.4-0.3,4.7-1
			s2.2-1.6,2.7-2.6s0.8-2.7,0.8-5.1v-1.1c-1,1.3-2.3,2.3-3.8,3s-3,1-4.7,1c-2,0-3.8-0.5-5.5-1.5c-1.7-1-3-2.3-4-3.9
			c-0.9-1.6-1.4-3.4-1.4-5.4s0.5-3.8,1.5-5.5s2.3-3,4-4c1.7-1,3.5-1.5,5.5-1.5c1.6,0,3.1,0.3,4.4,1s2.7,1.7,4,3.2L420.6,509
			L420.6,509z M412.6,511.1c-1.5,0-3,0.4-4.3,1.1c-1.3,0.8-2.4,1.8-3.1,3.1c-0.8,1.3-1.1,2.7-1.1,4.3c0,2.3,0.8,4.2,2.3,5.8
			s3.6,2.3,6.1,2.3c2.5,0,4.5-0.8,6-2.3s2.3-3.5,2.3-5.9c0-1.6-0.4-3-1-4.3c-0.7-1.2-1.7-2.2-3-3C415.4,511.5,414,511.1,412.6,511.1
			z"/>
		<path d="M447,523.2l2.3,1.2c-0.8,1.5-1.6,2.7-2.6,3.6c-1,0.9-2.1,1.6-3.3,2.1c-1.2,0.5-2.6,0.7-4.2,0.7c-3.5,0-6.2-1.1-8.1-3.4
			c-2-2.3-2.9-4.8-2.9-7.7c0-2.7,0.8-5.1,2.5-7.2c2.1-2.7,4.9-4,8.4-4c3.6,0,6.5,1.4,8.6,4.1c1.5,1.9,2.3,4.3,2.3,7.2H431
			c0,2.5,0.8,4.5,2.4,6s3.4,2.4,5.6,2.4c1.1,0,2.1-0.2,3.1-0.6s1.9-0.9,2.6-1.5C445.4,525.6,446.2,524.6,447,523.2z M447,517.5
			c-0.4-1.5-0.9-2.6-1.6-3.5c-0.7-0.9-1.6-1.6-2.8-2.1c-1.1-0.5-2.4-0.8-3.6-0.8c-2.1,0-3.9,0.7-5.4,2c-1.1,1-1.9,2.4-2.5,4.4H447z"
			/>
	</g>
</g>
<g>
	<path class="st0" d="M263.5,335.4c-5.2,0.1-10.4,0.3-15.5-0.6c-2.3-0.4-4.2-1.8-5.1-3.9c-1.6-3.9-2.9-7.8-4-11.9
		c-1.1-4.1-2.9-8.2-3.9-12.4c-0.3-1.3-1.2-2.6-2.4-3.6c-2.8-2.2-3.2-2.2-6.1,0c-5.9,4.6-10.9,10.1-16.4,15c-3,2.7-6,4.7-10.4,4.2
		c-1.9-0.2-3.2-1.3-4.6-1.9c-4.1-1.8-7.9-4.5-12.3-6c-1.3-0.5-2.4-1.8-3.5-2.8c-1.9-1.7-4.2-3-6-4.9c-1.6-1.7-2.4-3.4-2.3-5.6
		c0.2-2.5,0.4-5,1.1-7.5c1.1-4,1.7-8.1,2.3-12.2c0.3-2.3,1.3-4.4,1.9-6.6c1-4.3-2.5-7.6-6.8-6.5c-4.9,1.3-9.9,2.2-14.7,3.6
		c-3.3,1-6.7,1.3-10,2.2c-1.7,0.5-3.6-0.3-5-1.3c-2-1.5-4-3.1-5.3-5.4c-3.2-5.7-7-11.2-9.8-17.1c-1-2.1-2.3-4.1-2.3-6.8
		c0-3.1,0.7-5.5,3.1-7.8c4.3-4.1,7.6-9.2,12-13.3c1.7-1.6,3.5-2.9,4.8-4.8c1.9-2.9,1.1-5.6-2.2-6.8c-6.4-2.2-13-4.1-19.6-5.9
		c-4-1.1-7.5-3.1-10.3-6.2c-0.6-0.7-0.8-1.4-0.8-2.3c-0.7-9.8-0.9-19.7,0-29.5c0.3-2.9,1.8-5.3,4.7-6.2c5.9-1.8,11.8-3.8,17.8-5.4
		c2.7-0.7,5.3-2.1,8-3c1.4-0.5,2.4-1.9,3.1-3.5c0.6-1.5,0.4-2.3-0.7-3.5c-5.1-5.9-10.2-11.9-16-17.2c-3.1-2.8-4.3-6.1-3.8-10.2
		c0.1-0.7,0-1.6,0.3-2c4.2-7.2,7.4-15,12.5-21.7c2.1-2.8,4.4-5.6,8.4-5.4c1.7,0.1,3.4,0.5,5.1,1c6.7,1.8,13.3,3.4,20.1,4.6
		c2.2,0.4,4.3,0.7,6.2-1.2c1.7-1.8,2.5-3.1,1.3-5.1c-0.8-1.4-0.6-2.8-0.9-4.2c-0.8-3.6-1.7-7.2-2.5-10.8c-0.8-3.4-1.8-6.8-1.8-10.3
		c0-3.9,1-6.8,4.6-9.2c6.4-4.3,13.2-7.9,20-11.4c4.6-2.4,8.8-2.2,13,1.6c4.7,4.4,9.7,8.4,14.3,12.8c1.4,1.4,2.9,2.7,4.6,3.8
		c2.5,1.6,4.3,1.1,5.7-1.6c2-3.8,2.9-8,4.4-12c1.7-4.6,2.6-9.6,4.4-14.2c1.1-2.8,2.9-4.4,6.1-4.8c5.8-0.8,11.5-1.4,17.3-1.3
		c4.5,0.1,8.9,0.5,13.2,1.3c2.5,0.5,4.2,1.8,5.1,4.3c0.8,2.4,1.8,4.8,2.6,7.2c1,3.1-0.2,5.8-1.7,8.3c-3,5-6.2,9.9-9.1,15
		c-2.3,4.2-4.2,8.4-6.1,12.8c-0.4,0.9-0.8,1.8-1.1,2.7c-0.7,2.2-2.3,3-4.5,3c-4.5,0-8.9-0.1-13.3,0.7c-4.3,0.8-8.4,1.8-12.7,2.8
		c-4.1,1-8.1,2.2-12,3.7c-8.7,3.3-16.6,8-23.9,13.8c-7,5.5-13.2,11.8-19,18.5c-3.4,3.9-5.9,8.4-8.4,12.9c-4.5,8.1-7.3,16.6-9.4,25.7
		c-2.9,12.9-2.9,25.9-1.3,38.9c1,7.9,3.9,15.1,6.8,22.4c3.2,8.1,7.8,15.3,13,22c4.5,5.8,9.4,11.2,15.4,15.7c2.5,1.9,4.7,4.2,7.4,6
		c9.6,6.4,19.9,11,31,14.4c3.5,1,7.2,0.8,10.6,2.6c1.4,0.7,3.7-0.1,5.5,0.2c8.9,1.9,17.6,0.4,26.3-0.9c2.7-0.4,4.3,0.1,5.8,2.5
		c3,4.7,4.9,9.9,6.8,15.1c1,2.8-0.2,5.6-0.9,8.2c-1.2,4.7-2.9,9.4-4.3,14c-0.9,3-1.8,6-2.8,8.9c-1.4,4.1-3.9,6-8.2,6.1
		C271.9,335.5,267.7,335.4,263.5,335.4z"/>
	<path class="st1" d="M334.5,0c0.6,2.2,0.4,4,0.1,5.8c-1.8,12-1.5,23.9,0.4,35.8c1.5,9.3,3.2,18.5,6.8,27.2c1.8,4.5,3.4,9,5.7,13.3
		c3.8,7.1,7.4,14.3,11.6,21.1c4.1,6.6,7.9,13.4,12.7,19.6c4.8,6.2,8.5,13.1,13.1,19.4c3.6,4.8,6.2,10.1,9.5,15.1
		c2.3,3.5,4.1,7.2,5.7,11.1c6.2,15.4,9.6,31.4,8.2,48.1c-0.9,10.9-3.3,21.4-7.1,31.6c-5.4,14.5-13.5,27.4-23.2,39.4
		c-1.1,1.4-2.5,4-4,3.2c-1.9-1-0.3-3.5,0.3-5.2c8.1-24.3,6.5-48.1-3.3-71.5c-5.9-14-14.2-26.5-22.8-38.9c-9-13-17.8-26.1-24.6-40.5
		c-7.7-16.2-13-33.1-14-51.1c-0.5-9-0.6-18.1,0.9-27c1.6-9,4-17.8,7.2-26.3c3.6-9.2,8-18,13.1-26.5C332.3,1.4,332.3,1.4,334.5,0z"/>
	<path class="st0" d="M368.2,259.9c-0.1,10.2-2.9,19.7-7,29c-4.1,9.5-9.3,18.3-15.4,26.5c-3.2,4.3-6.8,8.5-10.2,12.6
		c-0.5,0.6-0.8,1.6-1.9,1.5c-1,0-1.9,0.1-1.8-1.5c0.1-3.2,0.9-6.4,2-9.3c0.8-2.5,1.5-4.8,1.2-7.3c-0.1-1.1,1-1.6,1.1-2.6
		c0.4-3.9,0.9-7.8,0.7-11.8c0-0.3-0.4-0.7-0.3-1c1.4-7.6,0.1-15-1.4-22.5c-0.9-4.2-1.8-8.4-3.1-12.5c-2-6.2-4.2-12.4-6.7-18.4
		c-1.8-4.3-4.2-8.4-6.4-12.5c-4.5-8.4-9.2-16.7-14.2-24.8c-2.6-4.2-4.9-8.7-7.4-12.9c-3.7-6.2-7.5-12.4-10.7-18.8
		c-3.8-7.7-7.1-15.6-9.1-24c-0.8-3.2-1.9-6.4-2.5-9.6c-0.5-2.5,0-5.2-0.5-7.7c-0.9-4.9-0.6-9.8-0.7-14.7c0-2.3,0.6-4.5,0.9-6.8
		c0.5-3.6,0.8-7.2,1.7-10.7c2.1-7.9,4.6-15.7,8.1-23.2c4.9-10.6,11.7-20,17.7-29.9c0.6-1.1,1.5-1,2.5-1.2c1-0.1,1.4,0.5,1.2,1.4
		c-0.3,1.3-0.7,2.6-1.1,3.8c-5.3,15.6-7.5,31.6-6.9,48c0.3,7.5,1.8,14.8,3.6,22.1c2.7,10.5,7.4,20.1,12.4,29.7
		c6.8,12.8,14.9,24.7,23.2,36.6c8,11.4,15.6,22.9,21.6,35.5C364.4,234.5,368.2,246.7,368.2,259.9z"/>
	<path class="st1" d="M264.7,151.3c1.4,1.2,1.6,2.5,1.8,3.9c1,6.8,2.9,13.2,5.1,19.7c5.3,15.9,13.6,30.2,22.2,44.5
		c5,8.4,10.5,16.4,15.2,25c4.9,9,9.1,18.3,11.2,28.5c2.7,13.2,1.6,26-2.7,38.6c-1.2,3.6-2.7,7.1-4,10.7c-0.1,0.2-0.1,0.5-0.2,0.7
		c-0.5,0.9-0.9,2.3-2.3,1.9c-1-0.3-1.1-1.5-1.1-2.5c0-3.5-0.1-6.9,0-10.4c0.4-10.2-2.9-19.4-7.3-28.4c-6.8-14-16.2-26.4-25.1-39.1
		c-7.1-10.1-13.6-20.6-17.6-32.4c-3.8-11-5.3-22.3-3.8-33.9c1-7.7,3.2-15.1,5.9-22.4C262.4,154.2,263.1,152.6,264.7,151.3z"/>
</g>
</svg>
